<?xml version="1.0" encoding="UTF-8" standalone="no"?>
<!DOCTYPE svg PUBLIC "-//W3C//DTD SVG 1.1//EN"
 "http://www.w3.org/Graphics/SVG/1.1/DTD/svg11.dtd">
<!-- Generated by graphviz version 2.42.3 (0)
 -->
<!-- Title: %3 Pages: 1 -->
<svg width="518pt" height="116pt"
 viewBox="0.00 0.00 518.00 116.00" xmlns="http://www.w3.org/2000/svg" xmlns:xlink="http://www.w3.org/1999/xlink">
<g id="graph0" class="graph" transform="scale(1 1) rotate(0) translate(4 112)">
<title>%3</title>
<polygon fill="white" stroke="transparent" points="-4,4 -4,-112 514,-112 514,4 -4,4"/>
<!-- 漢字 -->
<g id="node1" class="node">
<title>漢字</title>
<text text-anchor="middle" x="27" y="-52.3" font-family="Times,serif" font-size="14.00">漢字</text>
</g>
<!-- 在《廣韻》中的小韻號 -->
<g id="node2" class="node">
<title>在《廣韻》中的小韻號</title>
<text text-anchor="middle" x="191.5" y="-86.3" font-family="Times,serif" font-size="14.00">在《廣韻》中的小韻號</text>
</g>
<!-- 漢字&#45;&gt;在《廣韻》中的小韻號 -->
<g id="edge1" class="edge">
<title>漢字&#45;&gt;在《廣韻》中的小韻號</title>
<path fill="none" stroke="black" d="M54.26,-66.51C60.04,-68.55 66.17,-70.51 72,-72 81.6,-74.45 91.73,-76.61 101.86,-78.51"/>
<polygon fill="black" stroke="black" points="101.51,-82 111.97,-80.31 102.75,-75.11 101.51,-82"/>
<text text-anchor="middle" x="83" y="-79.8" font-family="Times,serif" font-size="14.00">1..n</text>
</g>
<!-- 解釋 -->
<g id="node3" class="node">
<title>解釋</title>
<text text-anchor="middle" x="191.5" y="-14.3" font-family="Times,serif" font-size="14.00">解釋</text>
</g>
<!-- 漢字&#45;&gt;解釋 -->
<g id="edge2" class="edge">
<title>漢字&#45;&gt;解釋</title>
<path fill="none" stroke="black" d="M54.41,-41.05C60.07,-38.34 66.12,-35.81 72,-34 98.79,-25.75 130.28,-21.75 154.07,-19.81"/>
<polygon fill="black" stroke="black" points="154.36,-23.3 164.08,-19.08 153.85,-16.32 154.36,-23.3"/>
<text text-anchor="middle" x="83" y="-37.8" font-family="Times,serif" font-size="14.00">1..n</text>
</g>
<!-- 在《廣韻》中的小韻號&#45;&gt;漢字 -->
<g id="edge3" class="edge">
<title>在《廣韻》中的小韻號&#45;&gt;漢字</title>
<path fill="none" stroke="black" d="M152.93,-71.91C135.45,-64.47 114.11,-56.72 94,-53 84.39,-51.22 81.77,-52.67 72,-53 69.46,-53.09 66.83,-53.2 64.19,-53.34"/>
<polygon fill="black" stroke="black" points="63.82,-49.85 54.04,-53.93 64.23,-56.84 63.82,-49.85"/>
<text text-anchor="middle" x="83" y="-56.8" font-family="Times,serif" font-size="14.00">1..n</text>
</g>
<!-- 在《廣韻》中的小韻號&#45;&gt;解釋 -->
<g id="edge4" class="edge">
<title>在《廣韻》中的小韻號&#45;&gt;解釋</title>
<path fill="none" stroke="black" d="M191.5,-71.59C191.5,-63.94 191.5,-54.89 191.5,-46.43"/>
<polygon fill="black" stroke="black" points="195,-46.17 191.5,-36.17 188,-46.17 195,-46.17"/>
<text text-anchor="middle" x="181" y="-50.3" font-family="Times,serif" font-size="14.00">1..n</text>
</g>
<!-- 在《切韻》音系中的音韻地位 -->
<g id="node4" class="node">
<title>在《切韻》音系中的音韻地位</title>
<text text-anchor="middle" x="409" y="-86.3" font-family="Times,serif" font-size="14.00">在《切韻》音系中的音韻地位</text>
</g>
<!-- 在《廣韻》中的小韻號&#45;&gt;在《切韻》音系中的音韻地位 -->
<g id="edge5" class="edge">
<title>在《廣韻》中的小韻號&#45;&gt;在《切韻》音系中的音韻地位</title>
<path fill="none" stroke="black" d="M271.22,-90C279.86,-90 288.78,-90 297.72,-90"/>
<polygon fill="black" stroke="black" points="297.82,-93.5 307.82,-90 297.82,-86.5 297.82,-93.5"/>
</g>
</g>
</svg>
